<?xml version="1.0" standalone="no"?>
<!DOCTYPE svg PUBLIC "-//W3C//DTD SVG 20010904//EN"
 "http://www.w3.org/TR/2001/REC-SVG-20010904/DTD/svg10.dtd">
<svg version="1.0" xmlns="http://www.w3.org/2000/svg"
 width="450.000000pt" height="346.000000pt" viewBox="0 0 450.000000 346.000000"
 preserveAspectRatio="xMidYMid meet">
<metadata>
Created by potrace 1.10, written by Peter Selinger 2001-2011
</metadata>
<g transform="translate(0.000000,346.000000) scale(0.050000,-0.050000)"
fill="#19a117" stroke="none">
<path d="M4290 5801 c-368 -89 -434 -549 -100 -703 230 -106 605 -11 682 174
143 341 -173 629 -582 529z m349 -151 c167 -86 156 -341 -19 -430 -219 -112
-475 -10 -495 197 -22 223 274 357 514 233z"/>
<path d="M3665 5759 c-43 -17 -45 -28 -46 -263 -1 -135 -8 -279 -15 -320 l-14
-74 -169 189 c-254 285 -244 278 -329 247 l-72 -26 0 -316 c0 -174 -7 -316
-16 -316 -9 0 -108 99 -221 220 -207 222 -236 239 -318 194 -43 -24 -35 -35
230 -311 l275 -285 85 34 85 34 0 297 c0 339 -1 338 144 183 58 -63 147 -159
197 -213 l91 -97 81 24 82 25 12 150 c7 83 13 262 13 398 0 261 -1 264 -95
226z"/>
<path d="M5178 5674 c-277 -147 -240 -542 62 -672 378 -163 722 26 671 367
-40 268 -466 445 -733 305z m431 -125 c235 -117 199 -436 -53 -479 -192 -34
-416 104 -416 254 0 240 223 347 469 225z"/>
<path d="M6213 5415 c-68 -108 -334 -581 -329 -585 49 -39 415 -239 477 -260
177 -63 328 -15 426 136 157 243 76 414 -300 629 -250 143 -237 139 -274 80z
m273 -226 c262 -153 306 -322 122 -467 -98 -77 -528 46 -528 150 0 29 222 408
239 408 6 0 82 -41 167 -91z"/>
<path d="M2111 4950 c-43 -15 -106 -48 -140 -73 -113 -83 -371 -303 -371 -317
0 -8 104 -137 232 -287 l232 -273 49 39 c474 373 562 566 361 794 -111 127
-228 165 -363 117z m157 -138 c216 -90 207 -306 -23 -502 -156 -133 -129 -140
-314 76 l-151 177 115 100 c181 158 269 193 373 149z"/>
<path d="M7370 4640 c-32 -35 -33 -44 -7 -75 16 -19 87 -102 157 -185 188
-220 187 -219 176 -230 -5 -6 -174 22 -375 61 -342 66 -368 69 -414 39 -64
-42 -76 -21 211 -359 244 -286 250 -290 290 -256 23 19 45 36 49 39 4 2 -81
105 -188 229 -107 124 -186 228 -177 231 10 3 180 -25 377 -64 366 -70 451
-69 451 9 0 17 -493 601 -508 601 -3 0 -22 -18 -42 -40z"/>
<path d="M4110 4610 c-1325 -208 -2411 -1402 -2436 -2680 l-4 -180 120 0 120
0 13 172 c66 868 615 1751 1307 2102 100 51 78 29 -100 -95 -642 -449 -1072
-1215 -1124 -2003 l-12 -188 118 6 118 6 14 165 c71 862 582 1630 1335 2005
208 105 254 103 61 -2 -749 -408 -1242 -1160 -1293 -1974 l-13 -206 108 6 108
6 14 170 c77 928 760 1761 1629 1988 126 33 146 10 22 -26 -794 -230 -1472
-1097 -1529 -1957 l-12 -185 92 0 c114 0 125 17 140 230 66 882 869 1711 1744
1798 117 12 116 11 -60 -35 -905 -240 -1570 -1043 -1570 -1898 l0 -95 90 0 90
0 0 78 c0 941 952 1832 1900 1778 100 -5 91 -8 -98 -31 -894 -109 -1642 -882
-1642 -1698 l0 -127 78 0 c87 0 81 -15 113 260 75 626 617 1202 1269 1350 164
37 548 45 650 13 46 -14 13 -18 -143 -19 -860 -5 -1551 -621 -1620 -1446 l-13
-161 78 7 c76 6 78 9 83 86 47 700 588 1271 1279 1349 187 22 476 -4 576 -51
53 -25 54 -27 10 -19 -842 155 -1677 -479 -1680 -1274 0 -147 111 -147 130 0
76 588 462 1022 1010 1137 244 52 607 3 780 -104 l50 -31 -50 12 c-27 7 -108
26 -180 44 -654 159 -1362 -367 -1404 -1043 -6 -99 -5 -100 54 -100 59 0 60 3
75 125 94 763 975 1175 1610 754 137 -90 133 -101 -10 -30 -493 244 -1068 47
-1304 -448 -62 -128 -110 -367 -81 -398 46 -49 88 0 112 129 128 691 1088 972
1473 431 l45 -63 -80 64 c-461 365 -1146 101 -1204 -464 -16 -156 61 -169 82
-13 79 594 908 764 1213 247 l43 -73 -102 95 c-329 308 -899 117 -902 -301 0
-82 54 -89 71 -10 59 266 220 405 470 405 144 0 399 -169 399 -264 0 -14 -10
-10 -25 8 -154 198 -483 127 -554 -119 -29 -102 14 -99 58 4 47 108 138 171
248 171 129 0 198 -57 252 -205 l20 -55 561 0 560 0 0 131 c0 1647 -1661 3004
-3350 2739z"/>
<path d="M1786 3811 c-163 -228 -116 -224 -389 -29 -274 197 -263 192 -304
130 -43 -65 -47 -55 62 -133 52 -37 184 -133 293 -214 109 -81 205 -140 213
-131 19 21 326 447 347 482 15 24 -35 82 -72 83 -7 1 -75 -84 -150 -188z"/>
<path d="M7790 3736 c-246 -86 -320 -341 -180 -623 131 -264 365 -345 589
-204 371 235 7 972 -409 827z m274 -179 c155 -110 200 -392 79 -500 -181 -162
-446 -12 -478 269 -25 223 214 361 399 231z"/>
<path d="M892 3544 l-29 -55 316 -165 c357 -186 346 -183 379 -110 31 68 34
66 -322 247 -313 159 -305 157 -344 83z"/>
<path d="M693 3230 c-33 -85 -12 -109 246 -283 143 -96 256 -178 252 -183 -4
-4 -139 -28 -301 -53 -321 -50 -321 -50 -340 -151 l-12 -70 260 -170 c143 -93
254 -175 246 -182 -8 -7 -140 -33 -294 -58 -154 -26 -290 -56 -303 -68 -38
-38 -52 -132 -19 -132 36 0 755 136 762 144 3 3 12 44 19 91 l14 85 -252 163
c-139 90 -245 170 -237 178 9 7 142 34 295 58 321 50 290 36 312 133 21 97 44
73 -290 307 -327 228 -341 236 -358 191z"/>
<path d="M8104 2746 c-188 -36 -291 -327 -212 -599 145 -501 790 -368 743 153
-31 341 -226 504 -531 446z m245 -154 c145 -61 218 -372 119 -506 -107 -144
-328 -131 -420 26 -166 282 30 593 301 480z"/>
</g>
</svg>
